<svg xmlns="http://www.w3.org/2000/svg" width="28" height="29" fill="none" viewBox="0 0 28 29">
  <path fill="#FF7F7F" d="M2 2h24v24H2z"/>
  <path fill="#000" d="M17.275 13.535a21.172 21.172 0 0 0-.855-.27 58.43 58.43 0 0 0-1.207-.363c-.352-.101-.74-.199-1.166-.293-.426-.093-.758-.14-.996-.14-.125 0-.22.02-.287.058-.192.145-.287.278-.287.399 0 .191.191.357.574.498a6.53 6.53 0 0 0 1.394.305c.75.082 1.356.257 1.817.527.465.27.8.584 1.008.943.207.356.31.72.31 1.096 0 .265-.053.514-.158.744-.453.961-1.322 1.441-2.607 1.441-.352 0-.749-.039-1.19-.117a12.36 12.36 0 0 1-1.271-.281c-.403-.11-.832-.238-1.29-.387l-1.277-.416c.102-.21.23-.465.387-.761l.457-.88c.144-.284.217-.44.217-.468.113.105.254.191.421.258.172.062.42.138.745.228.328.086.578.164.75.235a3.359 3.359 0 0 0 1.892.134c.227-.054.348-.1.364-.134 0-.102-.174-.201-.522-.3a7.42 7.42 0 0 0-1.154-.234 6.344 6.344 0 0 1-1.465-.351 3.384 3.384 0 0 1-1.248-.803 1.788 1.788 0 0 1-.516-1.3c0-.395.1-.807.3-1.237.218-.48.546-.828.983-1.043.438-.219.961-.328 1.57-.328.704 0 1.428.1 2.175.299.746.199 1.761.508 3.046.926-.027.058-.134.308-.322.75-.187.437-.328.757-.422.96-.093.204-.15.305-.17.305Z"/>
</svg>
